ply
format ascii 1.0
comment Generated from Goxel 0.11.0
element vertex 545
property float x
property float y
property float z
property float red
property float green
property float blue
element face 292
property list uchar int vertex_indices
end_header
-1 -1 7 0.921569 0.427451 0.015686
-9.53674e-07 -1 7 0.921569 0.427451 0.015686
-9.53674e-07 -1 8 0.921569 0.427451 0.015686
-1 -1 8 0.921569 0.427451 0.015686
-1 -9.53674e-07 7 0.921569 0.427451 0.015686
-9.53674e-07 -9.53674e-07 7 0.921569 0.427451 0.015686
-9.53674e-07 -9.53674e-07 8 0.921569 0.427451 0.015686
-1 -9.53674e-07 8 0.921569 0.427451 0.015686
-9.53674e-07 -1 9 0.921569 0.427451 0.015686
-1 -1 9 0.921569 0.427451 0.015686
-9.53674e-07 -9.53674e-07 9 0.921569 0.427451 0.015686
-1 -9.53674e-07 9 0.921569 0.427451 0.015686
-1 4 4 1.000000 0.996078 0.996078
-9.53674e-07 4 4 1.000000 0.996078 0.996078
-9.53674e-07 4 5 1.000000 0.996078 0.996078
-1 4 5 1.000000 0.996078 0.996078
-1 5 4 1.000000 0.996078 0.996078
-9.53674e-07 5 4 1.000000 0.996078 0.996078
-9.53674e-07 5 5 1.000000 0.996078 0.996078
-1 5 5 1.000000 0.996078 0.996078
-1 5 4 0.921569 0.427451 0.015686
-1 6 4 0.921569 0.427451 0.015686
-9.53674e-07 6 4 0.921569 0.427451 0.015686
-9.53674e-07 5 4 0.921569 0.427451 0.015686
-9.53674e-07 6 5 0.921569 0.427451 0.015686
-9.53674e-07 5 5 0.921569 0.427451 0.015686
-1 5 5 0.921569 0.427451 0.015686
-1 6 5 0.921569 0.427451 0.015686
-9.53674e-07 7 4 0.921569 0.427451 0.015686
-1 7 4 0.921569 0.427451 0.015686
-1 7 5 0.921569 0.427451 0.015686
-9.53674e-07 7 5 0.921569 0.427451 0.015686
-1 3 5 1.000000 0.996078 0.996078
-9.53674e-07 3 5 1.000000 0.996078 0.996078
-9.53674e-07 3 6 1.000000 0.996078 0.996078
-1 3 6 1.000000 0.996078 0.996078
-9.53674e-07 4 6 1.000000 0.996078 0.996078
-1 4 6 1.000000 0.996078 0.996078
-9.53674e-07 4 5 0.921569 0.427451 0.015686
-9.53674e-07 5 6 0.921569 0.427451 0.015686
-9.53674e-07 4 6 0.921569 0.427451 0.015686
-1 4 5 0.921569 0.427451 0.015686
-1 4 6 0.921569 0.427451 0.015686
-1 5 6 0.921569 0.427451 0.015686
-9.53674e-07 6 5 1.000000 0.996078 0.996078
-9.53674e-07 6 6 1.000000 0.996078 0.996078
-9.53674e-07 5 6 1.000000 0.996078 0.996078
-1 5 6 1.000000 0.996078 0.996078
-1 6 6 1.000000 0.996078 0.996078
-1 6 5 1.000000 0.996078 0.996078
-9.53674e-07 7 5 1.000000 0.996078 0.996078
-9.53674e-07 7 6 1.000000 0.996078 0.996078
-1 7 6 1.000000 0.996078 0.996078
-1 7 5 1.000000 0.996078 0.996078
-1 8 5 0.921569 0.427451 0.015686
-9.53674e-07 8 5 0.921569 0.427451 0.015686
-9.53674e-07 8 6 0.921569 0.427451 0.015686
-9.53674e-07 7 6 0.921569 0.427451 0.015686
-1 7 6 0.921569 0.427451 0.015686
-1 8 6 0.921569 0.427451 0.015686
-1 8 5 0.262745 0.247059 0.247059
-1 9 5 0.262745 0.247059 0.247059
-9.53674e-07 9 5 0.262745 0.247059 0.247059
-9.53674e-07 8 5 0.262745 0.247059 0.247059
-9.53674e-07 9 6 0.262745 0.247059 0.247059
-9.53674e-07 8 6 0.262745 0.247059 0.247059
-1 8 6 0.262745 0.247059 0.247059
-1 9 6 0.262745 0.247059 0.247059
-9.53674e-07 10 5 0.262745 0.247059 0.247059
-1 10 5 0.262745 0.247059 0.247059
-1 10 6 0.262745 0.247059 0.247059
-9.53674e-07 10 6 0.262745 0.247059 0.247059
-1 0 6 0.921569 0.427451 0.015686
-9.53674e-07 0 6 0.921569 0.427451 0.015686
-9.53674e-07 0 7 0.921569 0.427451 0.015686
-1 0 7 0.921569 0.427451 0.015686
-1 1 6 0.921569 0.427451 0.015686
-9.53674e-07 1 6 0.921569 0.427451 0.015686
-9.53674e-07 1 7 0.921569 0.427451 0.015686
-1 1 7 0.921569 0.427451 0.015686
-1 2 6 0.921569 0.427451 0.015686
-9.53674e-07 2 6 0.921569 0.427451 0.015686
-9.53674e-07 2 7 0.921569 0.427451 0.015686
-1 2 7 0.921569 0.427451 0.015686
-3 2 6 0.262745 0.247059 0.247059
-2 2 6 0.262745 0.247059 0.247059
-2 2 7 0.262745 0.247059 0.247059
-3 2 7 0.262745 0.247059 0.247059
-3 3 6 0.262745 0.247059 0.247059
-2 3 6 0.262745 0.247059 0.247059
-2 3 7 0.262745 0.247059 0.247059
-3 3 7 0.262745 0.247059 0.247059
-1 2 6 0.262745 0.247059 0.247059
-1 2 7 0.262745 0.247059 0.247059
-1 3 6 0.262745 0.247059 0.247059
-1 3 6 0.921569 0.427451 0.015686
-9.53674e-07 3 6 0.921569 0.427451 0.015686
-4 3 6 0.262745 0.247059 0.247059
-4 3 7 0.262745 0.247059 0.247059
-4 4 6 0.262745 0.247059 0.247059
-3 4 6 0.262745 0.247059 0.247059
-3 4 7 0.262745 0.247059 0.247059
-4 4 7 0.262745 0.247059 0.247059
-3 3 6 1.000000 0.996078 0.996078
-3 4 6 1.000000 0.996078 0.996078
-2 4 6 1.000000 0.996078 0.996078
-2 3 6 1.000000 0.996078 0.996078
-2 3 7 1.000000 0.996078 0.996078
-2 4 7 1.000000 0.996078 0.996078
-3 4 7 1.000000 0.996078 0.996078
-3 3 7 1.000000 0.996078 0.996078
-3 5 6 0.262745 0.247059 0.247059
-4 5 6 0.262745 0.247059 0.247059
-4 5 7 0.262745 0.247059 0.247059
-3 5 7 0.262745 0.247059 0.247059
-3 5 6 1.000000 0.996078 0.996078
-2 5 6 1.000000 0.996078 0.996078
-2 5 7 1.000000 0.996078 0.996078
-3 5 7 1.000000 0.996078 0.996078
-2 6 6 0.262745 0.247059 0.247059
-3 6 6 0.262745 0.247059 0.247059
-3 6 7 0.262745 0.247059 0.247059
-2 6 7 0.262745 0.247059 0.247059
-2 5 6 0.262745 0.247059 0.247059
-2 5 7 0.262745 0.247059 0.247059
-1 6 6 0.262745 0.247059 0.247059
-1 6 7 0.262745 0.247059 0.247059
-1 5 6 0.262745 0.247059 0.247059
-9.53674e-07 6 6 0.921569 0.427451 0.015686
-9.53674e-07 7 7 0.921569 0.427451 0.015686
-9.53674e-07 6 7 0.921569 0.427451 0.015686
-1 6 6 0.921569 0.427451 0.015686
-1 6 7 0.921569 0.427451 0.015686
-1 7 7 0.921569 0.427451 0.015686
-9.53674e-07 8 6 1.000000 0.996078 0.996078
-9.53674e-07 8 7 1.000000 0.996078 0.996078
-9.53674e-07 7 7 1.000000 0.996078 0.996078
-1 7 7 1.000000 0.996078 0.996078
-1 8 7 1.000000 0.996078 0.996078
-1 8 6 1.000000 0.996078 0.996078
-9.53674e-07 9 6 0.921569 0.427451 0.015686
-9.53674e-07 9 7 0.921569 0.427451 0.015686
-9.53674e-07 8 7 0.921569 0.427451 0.015686
-1 8 7 0.921569 0.427451 0.015686
-1 9 7 0.921569 0.427451 0.015686
-1 9 6 0.921569 0.427451 0.015686
-9.53674e-07 9 6 1.000000 0.996078 0.996078
-9.53674e-07 10 6 1.000000 0.996078 0.996078
-9.53674e-07 10 7 1.000000 0.996078 0.996078
-9.53674e-07 9 7 1.000000 0.996078 0.996078
-1 9 6 1.000000 0.996078 0.996078
-1 9 7 1.000000 0.996078 0.996078
-1 10 7 1.000000 0.996078 0.996078
-1 10 6 1.000000 0.996078 0.996078
-9.53674e-07 11 6 0.262745 0.247059 0.247059
-1 11 6 0.262745 0.247059 0.247059
-1 11 7 0.262745 0.247059 0.247059
-9.53674e-07 11 7 0.262745 0.247059 0.247059
-9.53674e-07 10 7 0.262745 0.247059 0.247059
-1 10 7 0.262745 0.247059 0.247059
-9.53674e-07 1 8 0.921569 0.427451 0.015686
-9.53674e-07 0 8 0.921569 0.427451 0.015686
-1 0 8 0.921569 0.427451 0.015686
-1 1 8 0.921569 0.427451 0.015686
-2 1 7 0.921569 0.427451 0.015686
-2 1 8 0.921569 0.427451 0.015686
-2 2 7 0.921569 0.427451 0.015686
-2 2 8 0.921569 0.427451 0.015686
-9.53674e-07 2 8 0.921569 0.427451 0.015686
-2 2 7 1.000000 0.996078 0.996078
-2 2 8 1.000000 0.996078 0.996078
-2 3 8 1.000000 0.996078 0.996078
-2 3 7 0.921569 0.427451 0.015686
-2 3 8 0.921569 0.427451 0.015686
-2 4 8 0.921569 0.427451 0.015686
-2 4 7 0.921569 0.427451 0.015686
-2 5 8 0.921569 0.427451 0.015686
-2 5 7 0.921569 0.427451 0.015686
-2 5 8 1.000000 0.996078 0.996078
-2 6 8 1.000000 0.996078 0.996078
-2 6 7 1.000000 0.996078 0.996078
-2 6 7 0.921569 0.427451 0.015686
-2 7 7 0.921569 0.427451 0.015686
-2 6 8 0.921569 0.427451 0.015686
-2 7 8 0.921569 0.427451 0.015686
-9.53674e-07 7 8 0.921569 0.427451 0.015686
-9.53674e-07 6 8 0.921569 0.427451 0.015686
-2 8 7 0.921569 0.427451 0.015686
-2 8 8 0.921569 0.427451 0.015686
-9.53674e-07 8 8 0.921569 0.427451 0.015686
-2 8 7 1.000000 0.996078 0.996078
-2 9 7 1.000000 0.996078 0.996078
-2 8 8 1.000000 0.996078 0.996078
-2 9 8 1.000000 0.996078 0.996078
-9.53674e-07 9 8 1.000000 0.996078 0.996078
-9.53674e-07 8 8 1.000000 0.996078 0.996078
-2 10 7 1.000000 0.996078 0.996078
-2 10 8 1.000000 0.996078 0.996078
-1 10 8 1.000000 0.996078 0.996078
-9.53674e-07 10 7 0.921569 0.427451 0.015686
-9.53674e-07 10 8 0.921569 0.427451 0.015686
-9.53674e-07 9 8 0.921569 0.427451 0.015686
-9.53674e-07 11 7 1.000000 0.996078 0.996078
-9.53674e-07 11 8 1.000000 0.996078 0.996078
-9.53674e-07 10 8 1.000000 0.996078 0.996078
-1 11 8 1.000000 0.996078 0.996078
-1 11 7 1.000000 0.996078 0.996078
-9.53674e-07 12 7 0.262745 0.247059 0.247059
-1 12 7 0.262745 0.247059 0.247059
-1 12 8 0.262745 0.247059 0.247059
-9.53674e-07 12 8 0.262745 0.247059 0.247059
-9.53674e-07 11 8 0.262745 0.247059 0.247059
-1 11 8 0.262745 0.247059 0.247059
-2 0 8 0.921569 0.427451 0.015686
-1 0 9 0.921569 0.427451 0.015686
-2 0 9 0.921569 0.427451 0.015686
-2 1 9 0.921569 0.427451 0.015686
-2 1 8 1.000000 0.996078 0.996078
-2 1 9 1.000000 0.996078 0.996078
-2 2 9 1.000000 0.996078 0.996078
-2 2 9 0.921569 0.427451 0.015686
-2 3 9 0.921569 0.427451 0.015686
-2 3 9 1.000000 0.996078 0.996078
-2 4 9 1.000000 0.996078 0.996078
-2 4 8 1.000000 0.996078 0.996078
-2 4 9 0.921569 0.427451 0.015686
-2 5 9 0.921569 0.427451 0.015686
-2 6 9 0.921569 0.427451 0.015686
-2 6 9 1.000000 0.996078 0.996078
-2 7 9 1.000000 0.996078 0.996078
-2 7 8 1.000000 0.996078 0.996078
-2 7 9 0.921569 0.427451 0.015686
-2 8 9 0.921569 0.427451 0.015686
-2 9 9 0.921569 0.427451 0.015686
-2 9 8 0.921569 0.427451 0.015686
-1 10 8 0.921569 0.427451 0.015686
-2 10 8 0.921569 0.427451 0.015686
-2 10 9 0.921569 0.427451 0.015686
-1 10 9 0.921569 0.427451 0.015686
-1 9 9 0.921569 0.427451 0.015686
-9.53674e-07 11 9 1.000000 0.996078 0.996078
-9.53674e-07 10 9 1.000000 0.996078 0.996078
-1 10 9 1.000000 0.996078 0.996078
-1 11 9 1.000000 0.996078 0.996078
-1 12 9 0.262745 0.247059 0.247059
-9.53674e-07 12 9 0.262745 0.247059 0.247059
-9.53674e-07 11 9 0.262745 0.247059 0.247059
-1 11 9 0.262745 0.247059 0.247059
-2 0 9 0.000000 0.000000 0.000000
-1 0 9 0.000000 0.000000 0.000000
-1 0 10 0.000000 0.000000 0.000000
-2 0 10 0.000000 0.000000 0.000000
-1 1 10 0.000000 0.000000 0.000000
-2 1 10 0.000000 0.000000 0.000000
-2 1 9 0.000000 0.000000 0.000000
-9.53674e-07 0 9 0.921569 0.427451 0.015686
-9.53674e-07 0 10 0.921569 0.427451 0.015686
-1 0 10 0.921569 0.427451 0.015686
-1 1 10 0.921569 0.427451 0.015686
-1 2 10 0.921569 0.427451 0.015686
-2 2 10 0.921569 0.427451 0.015686
-2 1 10 0.921569 0.427451 0.015686
-1 2 10 1.000000 0.996078 0.996078
-1 3 10 1.000000 0.996078 0.996078
-2 3 10 1.000000 0.996078 0.996078
-2 2 10 1.000000 0.996078 0.996078
-1 3 10 0.921569 0.427451 0.015686
-1 4 10 0.921569 0.427451 0.015686
-2 4 10 0.921569 0.427451 0.015686
-2 3 10 0.921569 0.427451 0.015686
-1 4 10 1.000000 0.996078 0.996078
-1 5 10 1.000000 0.996078 0.996078
-2 5 10 1.000000 0.996078 0.996078
-2 4 10 1.000000 0.996078 0.996078
-2 5 9 1.000000 0.996078 0.996078
-1 5 10 0.921569 0.427451 0.015686
-1 6 10 0.921569 0.427451 0.015686
-2 6 10 0.921569 0.427451 0.015686
-2 5 10 0.921569 0.427451 0.015686
-1 7 10 0.921569 0.427451 0.015686
-2 7 10 0.921569 0.427451 0.015686
-1 7 10 1.000000 0.996078 0.996078
-1 8 10 1.000000 0.996078 0.996078
-2 8 10 1.000000 0.996078 0.996078
-2 7 10 1.000000 0.996078 0.996078
-2 8 9 1.000000 0.996078 0.996078
-2 9 10 0.921569 0.427451 0.015686
-1 9 10 0.921569 0.427451 0.015686
-1 8 10 0.921569 0.427451 0.015686
-2 8 10 0.921569 0.427451 0.015686
-9.53674e-07 9 9 0.921569 0.427451 0.015686
-9.53674e-07 10 9 0.921569 0.427451 0.015686
-9.53674e-07 10 10 0.921569 0.427451 0.015686
-9.53674e-07 9 10 0.921569 0.427451 0.015686
-1 10 10 0.921569 0.427451 0.015686
-1 11 10 0.262745 0.247059 0.247059
-9.53674e-07 11 10 0.262745 0.247059 0.247059
-9.53674e-07 10 10 0.262745 0.247059 0.247059
-1 10 10 0.262745 0.247059 0.247059
-9.53674e-07 10 9 0.262745 0.247059 0.247059
-1 10 9 0.262745 0.247059 0.247059
-9.53674e-07 0 11 0.921569 0.427451 0.015686
-1 0 11 0.921569 0.427451 0.015686
-9.53674e-07 1 11 0.921569 0.427451 0.015686
-1 1 11 0.921569 0.427451 0.015686
-9.53674e-07 1 10 0.921569 0.427451 0.015686
-9.53674e-07 2 11 0.921569 0.427451 0.015686
-1 2 11 0.921569 0.427451 0.015686
-9.53674e-07 2 10 0.921569 0.427451 0.015686
-9.53674e-07 2 10 1.000000 0.996078 0.996078
-9.53674e-07 3 10 1.000000 0.996078 0.996078
-9.53674e-07 3 11 1.000000 0.996078 0.996078
-9.53674e-07 2 11 1.000000 0.996078 0.996078
-1 2 11 1.000000 0.996078 0.996078
-1 3 11 1.000000 0.996078 0.996078
-9.53674e-07 3 10 0.921569 0.427451 0.015686
-9.53674e-07 4 10 0.921569 0.427451 0.015686
-9.53674e-07 4 11 0.921569 0.427451 0.015686
-9.53674e-07 3 11 0.921569 0.427451 0.015686
-1 3 11 0.921569 0.427451 0.015686
-1 4 11 0.921569 0.427451 0.015686
-9.53674e-07 5 10 0.921569 0.427451 0.015686
-9.53674e-07 5 11 0.921569 0.427451 0.015686
-1 5 11 0.921569 0.427451 0.015686
-9.53674e-07 5 11 1.000000 0.996078 0.996078
-9.53674e-07 6 11 1.000000 0.996078 0.996078
-1 6 11 1.000000 0.996078 0.996078
-1 5 11 1.000000 0.996078 0.996078
-9.53674e-07 5 10 1.000000 0.996078 0.996078
-9.53674e-07 6 10 1.000000 0.996078 0.996078
-1 6 10 1.000000 0.996078 0.996078
-9.53674e-07 6 10 0.921569 0.427451 0.015686
-9.53674e-07 7 10 0.921569 0.427451 0.015686
-9.53674e-07 7 11 0.921569 0.427451 0.015686
-9.53674e-07 6 11 0.921569 0.427451 0.015686
-1 6 11 0.921569 0.427451 0.015686
-1 7 11 0.921569 0.427451 0.015686
-9.53674e-07 8 10 0.921569 0.427451 0.015686
-9.53674e-07 8 11 0.921569 0.427451 0.015686
-1 8 11 0.921569 0.427451 0.015686
-9.53674e-07 9 11 0.921569 0.427451 0.015686
-1 9 11 0.921569 0.427451 0.015686
-1 10 11 0.262745 0.247059 0.247059
-9.53674e-07 10 11 0.262745 0.247059 0.247059
-9.53674e-07 9 10 0.262745 0.247059 0.247059
-9.53674e-07 9 11 0.262745 0.247059 0.247059
-1 9 10 0.262745 0.247059 0.247059
-1 9 11 0.262745 0.247059 0.247059
-1 2 11 0.262745 0.247059 0.247059
-9.53674e-07 2 11 0.262745 0.247059 0.247059
-9.53674e-07 2 12 0.262745 0.247059 0.247059
-1 2 12 0.262745 0.247059 0.247059
-9.53674e-07 3 12 0.262745 0.247059 0.247059
-1 3 12 0.262745 0.247059 0.247059
-9.53674e-07 3 11 0.262745 0.247059 0.247059
-1 3 11 0.262745 0.247059 0.247059
-9.53674e-07 4 11 1.000000 0.996078 0.996078
-9.53674e-07 4 12 1.000000 0.996078 0.996078
-9.53674e-07 3 12 1.000000 0.996078 0.996078
-1 3 12 1.000000 0.996078 0.996078
-1 4 12 1.000000 0.996078 0.996078
-1 4 11 1.000000 0.996078 0.996078
-9.53674e-07 5 11 0.262745 0.247059 0.247059
-1 5 11 0.262745 0.247059 0.247059
-1 5 12 0.262745 0.247059 0.247059
-9.53674e-07 5 12 0.262745 0.247059 0.247059
-9.53674e-07 4 12 0.262745 0.247059 0.247059
-1 4 12 0.262745 0.247059 0.247059
-9.53674e-07 4 11 0.262745 0.247059 0.247059
-1 4 11 0.262745 0.247059 0.247059
-1 6 11 0.262745 0.247059 0.247059
-9.53674e-07 6 11 0.262745 0.247059 0.247059
-9.53674e-07 6 12 0.262745 0.247059 0.247059
-1 6 12 0.262745 0.247059 0.247059
-9.53674e-07 7 12 0.262745 0.247059 0.247059
-1 7 12 0.262745 0.247059 0.247059
-9.53674e-07 7 11 0.262745 0.247059 0.247059
-1 7 11 0.262745 0.247059 0.247059
-9.53674e-07 7 11 1.000000 0.996078 0.996078
-9.53674e-07 8 11 1.000000 0.996078 0.996078
-9.53674e-07 8 12 1.000000 0.996078 0.996078
-9.53674e-07 7 12 1.000000 0.996078 0.996078
-1 7 11 1.000000 0.996078 0.996078
-1 7 12 1.000000 0.996078 0.996078
-1 8 12 1.000000 0.996078 0.996078
-1 8 11 1.000000 0.996078 0.996078
-9.53674e-07 9 11 1.000000 0.996078 0.996078
-9.53674e-07 9 12 1.000000 0.996078 0.996078
-1 9 12 1.000000 0.996078 0.996078
-1 9 11 1.000000 0.996078 0.996078
-1 10 12 0.262745 0.247059 0.247059
-9.53674e-07 10 12 0.262745 0.247059 0.247059
-9.53674e-07 9 12 0.262745 0.247059 0.247059
-1 9 12 0.262745 0.247059 0.247059
-9.53674e-07 3 13 0.262745 0.247059 0.247059
-1 3 13 0.262745 0.247059 0.247059
-1 4 13 0.262745 0.247059 0.247059
-9.53674e-07 4 13 0.262745 0.247059 0.247059
-9.53674e-07 7 13 0.262745 0.247059 0.247059
-1 7 13 0.262745 0.247059 0.247059
-9.53674e-07 8 13 0.262745 0.247059 0.247059
-1 8 13 0.262745 0.247059 0.247059
-9.53674e-07 8 12 0.262745 0.247059 0.247059
-1 8 12 0.262745 0.247059 0.247059
-1 9 13 0.262745 0.247059 0.247059
-9.53674e-07 9 13 0.262745 0.247059 0.247059
0 2 6 0.262745 0.247059 0.247059
1 2 6 0.262745 0.247059 0.247059
1 2 7 0.262745 0.247059 0.247059
0 2 7 0.262745 0.247059 0.247059
0 3 6 0.262745 0.247059 0.247059
1 3 6 0.262745 0.247059 0.247059
2 2 6 0.262745 0.247059 0.247059
2 2 7 0.262745 0.247059 0.247059
2 3 6 0.262745 0.247059 0.247059
2 3 7 0.262745 0.247059 0.247059
1 3 7 0.262745 0.247059 0.247059
0 3 6 1.000000 0.996078 0.996078
0 4 6 1.000000 0.996078 0.996078
1 4 6 1.000000 0.996078 0.996078
1 3 6 1.000000 0.996078 0.996078
2 4 6 1.000000 0.996078 0.996078
2 3 6 1.000000 0.996078 0.996078
2 3 7 1.000000 0.996078 0.996078
2 4 7 1.000000 0.996078 0.996078
1 4 7 1.000000 0.996078 0.996078
1 3 7 1.000000 0.996078 0.996078
3 3 6 0.262745 0.247059 0.247059
3 3 7 0.262745 0.247059 0.247059
2 4 6 0.262745 0.247059 0.247059
3 4 6 0.262745 0.247059 0.247059
3 4 7 0.262745 0.247059 0.247059
2 4 7 0.262745 0.247059 0.247059
0 5 6 1.000000 0.996078 0.996078
1 5 6 1.000000 0.996078 0.996078
2 5 6 1.000000 0.996078 0.996078
2 5 7 1.000000 0.996078 0.996078
1 5 7 1.000000 0.996078 0.996078
3 5 6 0.262745 0.247059 0.247059
2 5 6 0.262745 0.247059 0.247059
2 5 7 0.262745 0.247059 0.247059
3 5 7 0.262745 0.247059 0.247059
1 6 6 0.262745 0.247059 0.247059
0 6 6 0.262745 0.247059 0.247059
0 6 7 0.262745 0.247059 0.247059
1 6 7 0.262745 0.247059 0.247059
0 5 6 0.262745 0.247059 0.247059
1 5 6 0.262745 0.247059 0.247059
2 6 6 0.262745 0.247059 0.247059
2 6 7 0.262745 0.247059 0.247059
1 5 7 0.262745 0.247059 0.247059
0 2 7 1.000000 0.996078 0.996078
1 2 7 1.000000 0.996078 0.996078
1 2 8 1.000000 0.996078 0.996078
0 2 8 1.000000 0.996078 0.996078
1 3 8 1.000000 0.996078 0.996078
1 3 7 0.921569 0.427451 0.015686
1 4 7 0.921569 0.427451 0.015686
1 4 8 0.921569 0.427451 0.015686
1 3 8 0.921569 0.427451 0.015686
1 5 7 0.921569 0.427451 0.015686
1 5 8 0.921569 0.427451 0.015686
1 6 7 1.000000 0.996078 0.996078
0 6 7 1.000000 0.996078 0.996078
0 6 8 1.000000 0.996078 0.996078
1 6 8 1.000000 0.996078 0.996078
1 5 8 1.000000 0.996078 0.996078
0 0 8 0.921569 0.427451 0.015686
1 0 8 0.921569 0.427451 0.015686
1 0 9 0.921569 0.427451 0.015686
0 0 9 0.921569 0.427451 0.015686
0 1 8 0.921569 0.427451 0.015686
1 1 8 0.921569 0.427451 0.015686
1 1 9 0.921569 0.427451 0.015686
0 1 8 1.000000 0.996078 0.996078
1 1 8 1.000000 0.996078 0.996078
1 2 9 1.000000 0.996078 0.996078
1 1 9 1.000000 0.996078 0.996078
1 2 8 0.921569 0.427451 0.015686
1 3 9 0.921569 0.427451 0.015686
1 2 9 0.921569 0.427451 0.015686
1 4 8 1.000000 0.996078 0.996078
1 4 9 1.000000 0.996078 0.996078
1 3 9 1.000000 0.996078 0.996078
1 5 9 0.921569 0.427451 0.015686
1 4 9 0.921569 0.427451 0.015686
1 6 8 0.921569 0.427451 0.015686
1 6 9 0.921569 0.427451 0.015686
0 7 8 1.000000 0.996078 0.996078
1 7 8 1.000000 0.996078 0.996078
1 7 9 1.000000 0.996078 0.996078
1 6 9 1.000000 0.996078 0.996078
0 7 8 0.921569 0.427451 0.015686
0 8 8 0.921569 0.427451 0.015686
1 8 8 0.921569 0.427451 0.015686
1 7 8 0.921569 0.427451 0.015686
1 8 9 0.921569 0.427451 0.015686
1 7 9 0.921569 0.427451 0.015686
0 9 8 0.921569 0.427451 0.015686
1 9 8 0.921569 0.427451 0.015686
1 9 9 0.921569 0.427451 0.015686
1 10 8 0.921569 0.427451 0.015686
0 10 8 0.921569 0.427451 0.015686
0 10 9 0.921569 0.427451 0.015686
1 10 9 0.921569 0.427451 0.015686
0 9 9 0.921569 0.427451 0.015686
0 0 9 0.000000 0.000000 0.000000
1 0 9 0.000000 0.000000 0.000000
1 0 10 0.000000 0.000000 0.000000
0 0 10 0.000000 0.000000 0.000000
1 1 10 0.000000 0.000000 0.000000
0 1 10 0.000000 0.000000 0.000000
1 1 9 0.000000 0.000000 0.000000
1 1 10 0.921569 0.427451 0.015686
1 2 10 0.921569 0.427451 0.015686
0 2 10 0.921569 0.427451 0.015686
0 1 10 0.921569 0.427451 0.015686
1 2 10 1.000000 0.996078 0.996078
1 3 10 1.000000 0.996078 0.996078
0 3 10 1.000000 0.996078 0.996078
0 2 10 1.000000 0.996078 0.996078
1 3 10 0.921569 0.427451 0.015686
1 4 10 0.921569 0.427451 0.015686
0 4 10 0.921569 0.427451 0.015686
0 3 10 0.921569 0.427451 0.015686
1 4 10 1.000000 0.996078 0.996078
1 5 10 1.000000 0.996078 0.996078
0 5 10 1.000000 0.996078 0.996078
0 4 10 1.000000 0.996078 0.996078
1 5 9 1.000000 0.996078 0.996078
1 5 10 0.921569 0.427451 0.015686
1 6 10 0.921569 0.427451 0.015686
0 6 10 0.921569 0.427451 0.015686
0 5 10 0.921569 0.427451 0.015686
1 7 10 0.921569 0.427451 0.015686
0 7 10 0.921569 0.427451 0.015686
1 7 10 1.000000 0.996078 0.996078
1 8 10 1.000000 0.996078 0.996078
0 8 10 1.000000 0.996078 0.996078
0 7 10 1.000000 0.996078 0.996078
1 8 9 1.000000 0.996078 0.996078
0 9 10 0.921569 0.427451 0.015686
1 9 10 0.921569 0.427451 0.015686
1 8 10 0.921569 0.427451 0.015686
0 8 10 0.921569 0.427451 0.015686
4 0 1 2 3
4 0 4 5 1
4 1 5 6 2
4 0 3 7 4
4 3 2 8 9
4 8 10 11 9
4 2 6 10 8
4 3 9 11 7
4 12 13 14 15
4 12 16 17 13
4 13 17 18 14
4 12 15 19 16
4 20 21 22 23
4 23 22 24 25
4 20 26 27 21
4 28 29 30 31
4 21 29 28 22
4 22 28 31 24
4 21 27 30 29
4 32 33 34 35
4 32 15 14 33
4 33 14 36 34
4 32 35 37 15
4 38 25 39 40
4 41 42 43 26
4 18 44 45 46
4 19 47 48 49
4 44 50 51 45
4 49 48 52 53
4 30 54 55 31
4 31 55 56 57
4 30 58 59 54
4 60 61 62 63
4 63 62 64 65
4 60 66 67 61
4 68 69 70 71
4 61 69 68 62
4 62 68 71 64
4 61 67 70 69
4 72 73 74 75
4 72 76 77 73
4 73 77 78 74
4 72 75 79 76
4 76 80 81 77
4 77 81 82 78
4 76 79 83 80
4 84 85 86 87
4 84 88 89 85
4 86 90 91 87
4 84 87 91 88
4 85 92 93 86
4 85 89 94 92
4 80 95 96 81
4 97 88 91 98
4 97 99 100 88
4 91 101 102 98
4 97 98 102 99
4 103 104 105 106
4 107 108 109 110
4 106 105 37 35
4 111 112 113 114
4 99 112 111 100
4 101 114 113 102
4 99 102 113 112
4 104 115 116 105
4 108 117 118 109
4 105 116 47 37
4 119 120 121 122
4 111 120 119 123
4 124 122 121 114
4 111 114 121 120
4 125 119 122 126
4 123 119 125 127
4 128 57 129 130
4 131 132 133 58
4 51 134 135 136
4 52 137 138 139
4 56 140 141 142
4 59 143 144 145
4 146 147 148 149
4 150 151 152 153
4 154 155 156 157
4 70 155 154 71
4 71 154 157 158
4 70 159 156 155
4 74 78 160 161
4 75 162 163 79
4 164 79 163 165
4 164 166 83 79
4 164 165 167 166
4 78 82 168 160
4 169 170 171 107
4 172 173 174 175
4 175 174 176 177
4 117 178 179 180
4 181 182 133 132
4 181 183 184 182
4 130 129 185 186
4 182 187 143 133
4 182 184 188 187
4 129 142 189 185
4 190 191 151 138
4 190 192 193 191
4 135 149 194 195
4 152 196 197 198
4 191 196 152 151
4 191 193 197 196
4 141 199 200 201
4 148 202 203 204
4 152 198 205 206
4 207 208 209 210
4 156 208 207 157
4 157 207 210 211
4 156 212 209 208
4 213 162 214 215
4 213 165 163 162
4 213 215 216 165
4 217 218 219 170
4 167 220 221 173
4 171 222 223 224
4 174 225 226 176
4 176 226 227 183
4 179 228 229 230
4 184 231 232 188
4 188 232 233 234
4 235 236 237 238
4 239 238 237 233
4 234 233 237 236
4 204 203 240 241
4 198 242 243 205
4 210 209 244 245
4 246 245 244 247
4 211 210 245 246
4 212 247 244 209
4 248 249 250 251
4 250 252 253 251
4 248 251 253 254
4 214 255 256 257
4 258 259 260 261
4 216 261 260 220
4 262 263 264 265
4 219 265 264 222
4 266 267 268 269
4 221 269 268 225
4 270 271 272 273
4 223 273 272 274
4 275 276 277 278
4 226 278 277 227
4 276 279 280 277
4 227 277 280 231
4 281 282 283 284
4 229 284 283 285
4 239 233 286 287
4 288 287 286 289
4 232 289 286 233
4 290 291 292 293
4 239 287 294 238
4 246 247 295 296
4 297 296 295 298
4 299 246 296 297
4 300 298 295 247
4 257 256 301 302
4 301 303 304 302
4 256 305 303 301
4 257 302 304 258
4 303 306 307 304
4 305 308 306 303
4 258 304 307 259
4 309 310 311 312
4 262 313 314 263
4 315 316 317 318
4 266 319 320 267
4 316 321 322 317
4 267 320 323 275
4 324 325 326 327
4 328 329 325 324
4 271 327 326 330
4 331 332 333 334
4 276 335 336 279
4 332 337 338 333
4 279 336 339 288
4 337 293 340 338
4 288 339 341 287
4 297 298 342 343
4 344 297 343 345
4 346 347 342 298
4 348 349 350 351
4 350 352 353 351
4 349 354 352 350
4 348 351 353 355
4 311 356 357 358
4 314 359 360 361
4 362 363 364 365
4 366 365 364 367
4 368 362 365 366
4 369 367 364 363
4 370 371 372 373
4 372 374 375 373
4 371 376 374 372
4 370 373 375 377
4 378 379 380 381
4 382 383 384 385
4 379 386 387 380
4 385 384 388 389
4 343 342 390 391
4 392 391 390 393
4 345 343 391 392
4 347 393 390 342
4 353 352 394 395
4 366 367 396 397
4 394 397 396 395
4 352 366 397 394
4 353 395 396 367
4 375 374 398 399
4 398 400 401 399
4 374 402 400 398
4 375 399 401 403
4 392 393 404 405
4 400 405 404 401
4 402 392 405 400
4 403 401 404 393
4 406 407 408 409
4 406 410 411 407
4 407 412 413 408
4 407 411 414 412
4 413 415 416 408
4 412 414 415 413
4 417 418 419 420
4 420 419 421 422
4 423 424 425 426
4 414 427 428 415
4 414 429 430 427
4 428 431 432 415
4 427 430 431 428
4 418 433 434 419
4 419 434 435 421
4 424 436 437 425
4 438 439 440 441
4 429 439 438 430
4 431 441 440 432
4 430 438 441 431
4 442 443 444 445
4 446 443 442 447
4 448 442 445 449
4 447 442 448 439
4 440 449 445 450
4 439 448 449 440
4 451 452 453 454
4 452 426 455 453
4 456 457 458 459
4 457 460 461 458
4 462 463 464 465
4 437 462 465 466
4 467 468 469 470
4 467 471 472 468
4 468 472 473 469
4 474 454 453 475
4 475 453 476 477
4 478 459 479 480
4 455 481 482 483
4 458 461 484 485
4 461 486 487 484
4 464 488 489 465
4 465 489 490 491
4 492 493 494 495
4 495 494 496 497
4 493 498 499 494
4 494 499 500 496
4 501 502 503 504
4 498 502 501 499
4 500 504 503 505
4 499 501 504 500
4 506 507 508 509
4 508 510 511 509
4 507 512 510 508
4 513 514 515 516
4 473 480 514 513
4 517 518 519 520
4 476 483 518 517
4 521 522 523 524
4 479 485 522 521
4 525 526 527 528
4 482 529 526 525
4 530 531 532 533
4 484 487 531 530
4 531 534 535 532
4 487 497 534 531
4 536 537 538 539
4 490 540 537 536
4 500 505 541 542
4 543 542 541 544
4 496 500 542 543
